<svg width="60" height="60" viewBox="0 0 60 60" fill="none" xmlns="http://www.w3.org/2000/svg">
<rect x="27" y="53" width="7" height="5" rx="2.5" fill="#F59828"/>
<path d="M43 45L32.5 53.5L33.5 56.5L44 49.5L43 45Z" fill="#F59828"/>
<path d="M56.25 44.762C56.25 47.7602 56.0352 49.6436 55.6055 50.4124L53.8477 53.7565C53.5352 54.3331 52.5586 55.1884 50.918 56.3223C49.2773 57.4562 47.5781 58.4076 45.8203 59.1763C44.0625 59.9451 42.9102 60.1757 42.3633 59.8682L39.3164 57.9079C38.457 57.4082 37.9004 56.649 37.6465 55.6304C37.3926 54.6118 37.5195 53.6412 38.0273 52.7187L46.875 36.1134C47.3828 35.2293 48.1055 34.6431 49.043 34.3548C49.9805 34.0665 50.8789 34.1914 51.7383 34.7296L54.7852 36.6323C54.9805 36.7476 55.1563 36.9782 55.3125 37.3242C55.9375 35.0563 56.25 32.7884 56.25 30.5206C56.25 27.1765 55.625 23.9861 54.375 20.9495C53.125 17.9128 51.3867 15.2222 49.1602 12.8774L45 13.9153C41.0938 10.2252 36.0938 8.38015 30 8.38015C23.9063 8.38015 18.9063 10.2252 15 13.9153L10.8398 12.8774C8.61328 15.2222 6.875 17.9128 5.625 20.9495C4.375 23.9861 3.75 27.1765 3.75 30.5206C3.75 32.7884 4.0625 35.0563 4.6875 37.3242C4.84375 36.9782 5.01953 36.7476 5.21484 36.6323L8.26172 34.7296C9.12109 34.1914 10.0195 34.0665 10.957 34.3548C11.8945 34.6431 12.6172 35.2293 13.125 36.1134L21.9727 52.7187C22.4805 53.6412 22.6074 54.6118 22.3535 55.6304C22.0996 56.649 21.543 57.4082 20.6836 57.9079L17.6367 59.8682C17.0898 60.1757 15.9375 59.9451 14.1797 59.1763C12.4219 58.4076 10.7227 57.4562 9.08203 56.3223C7.44141 55.1884 6.46484 54.3331 6.15234 53.7565L4.39453 50.4124C3.96484 49.6436 3.75 47.7602 3.75 44.762C1.25 40.3416 0 35.5944 0 30.5206C0 26.523 0.791016 22.6984 2.37305 19.0468C3.95508 15.3951 6.08398 12.2528 8.75977 9.61978C11.4355 6.98676 14.6289 4.89187 18.3398 3.33512C22.0508 1.77838 25.9375 1 30 1C34.0625 1 37.9492 1.77838 41.6602 3.33512C45.3711 4.89187 48.5645 6.98676 51.2402 9.61978C53.916 12.2528 56.0449 15.3951 57.627 19.0468C59.209 22.6984 60 26.523 60 30.5206C60 35.5944 58.75 40.3416 56.25 44.762Z" fill="#48D9DE"/>
<path d="M19.612 29.552C23.428 26.828 25.336 24.662 25.336 23.054C25.336 22.07 24.91 21.578 24.058 21.578C23.578 21.578 23.224 21.746 22.996 22.082C22.78 22.418 22.66 22.94 22.636 23.648H19.63C19.702 22.1 20.17 20.936 21.034 20.156C21.898 19.376 22.99 18.986 24.31 18.986C25.69 18.986 26.728 19.334 27.424 20.03C28.132 20.726 28.486 21.632 28.486 22.748C28.486 23.984 28.012 25.196 27.064 26.384C26.116 27.56 24.982 28.556 23.662 29.372H28.684V31.856H19.612V29.552ZM29.9873 29.66V27.086L35.8013 19.112H39.1133V26.978H40.6433V29.66H39.1133V32H35.9993V29.66H29.9873ZM36.2513 22.676L33.1193 26.978H36.2513V22.676Z" fill="#F59828"/>
<path d="M16.369 35.668C17.201 35.668 17.8597 35.9453 18.345 36.5C18.839 37.0547 19.086 37.8173 19.086 38.788V43H16.863V39.048C16.863 38.5627 16.733 38.1857 16.473 37.917C16.2217 37.6397 15.8837 37.501 15.459 37.501C15.0083 37.501 14.6487 37.644 14.38 37.93C14.12 38.216 13.99 38.6233 13.99 39.152V43H11.767V33.38H13.99V37.072C14.198 36.6387 14.5057 36.2963 14.913 36.045C15.329 35.7937 15.8143 35.668 16.369 35.668ZM23.9452 35.655C24.6645 35.655 25.3058 35.8067 25.8692 36.11C26.4412 36.4047 26.8875 36.8337 27.2082 37.397C27.5375 37.9603 27.7022 38.619 27.7022 39.373C27.7022 40.127 27.5375 40.7857 27.2082 41.349C26.8875 41.9123 26.4412 42.3457 25.8692 42.649C25.3058 42.9437 24.6645 43.091 23.9452 43.091C23.2258 43.091 22.5802 42.9437 22.0082 42.649C21.4362 42.3457 20.9855 41.9123 20.6562 41.349C20.3355 40.7857 20.1752 40.127 20.1752 39.373C20.1752 38.619 20.3355 37.9603 20.6562 37.397C20.9855 36.8337 21.4362 36.4047 22.0082 36.11C22.5802 35.8067 23.2258 35.655 23.9452 35.655ZM23.9452 37.579C23.5205 37.579 23.1608 37.735 22.8662 38.047C22.5802 38.3503 22.4372 38.7923 22.4372 39.373C22.4372 39.9537 22.5802 40.3957 22.8662 40.699C23.1608 41.0023 23.5205 41.154 23.9452 41.154C24.3698 41.154 24.7252 41.0023 25.0112 40.699C25.2972 40.3957 25.4402 39.9537 25.4402 39.373C25.4402 38.7923 25.2972 38.3503 25.0112 38.047C24.7252 37.735 24.3698 37.579 23.9452 37.579ZM36.0699 35.746V43H33.8339V41.687C33.6259 42.1117 33.3139 42.4497 32.8979 42.701C32.4906 42.9523 32.0139 43.078 31.4679 43.078C30.6359 43.078 29.9729 42.8007 29.4789 42.246C28.9936 41.6913 28.7509 40.9287 28.7509 39.958V35.746H30.9609V39.685C30.9609 40.179 31.0866 40.5647 31.3379 40.842C31.5979 41.1107 31.9446 41.245 32.3779 41.245C32.8286 41.245 33.1839 41.102 33.4439 40.816C33.7039 40.53 33.8339 40.1227 33.8339 39.594V35.746H36.0699ZM39.825 37.111C40.1023 36.669 40.4576 36.318 40.891 36.058C41.333 35.798 41.8096 35.668 42.321 35.668V38.047H41.684C41.0946 38.047 40.6353 38.1727 40.306 38.424C39.9853 38.6753 39.825 39.1 39.825 39.698V43H37.602V35.746H39.825V37.111ZM45.8904 35.655C46.809 35.655 47.5414 35.8847 48.0874 36.344C48.642 36.8033 48.9887 37.41 49.1274 38.164H47.0474C46.9867 37.8693 46.848 37.6397 46.6314 37.475C46.4234 37.3017 46.159 37.215 45.8384 37.215C45.587 37.215 45.3964 37.2713 45.2664 37.384C45.1364 37.488 45.0714 37.6397 45.0714 37.839C45.0714 38.0643 45.1884 38.2333 45.4224 38.346C45.665 38.4587 46.042 38.5713 46.5534 38.684C47.108 38.814 47.563 38.9483 47.9184 39.087C48.2737 39.217 48.5814 39.4337 48.8414 39.737C49.1014 40.0403 49.2314 40.4477 49.2314 40.959C49.2314 41.375 49.1187 41.7433 48.8934 42.064C48.668 42.3847 48.343 42.636 47.9184 42.818C47.4937 43 46.991 43.091 46.4104 43.091C45.431 43.091 44.6467 42.8743 44.0574 42.441C43.468 42.0077 43.1084 41.388 42.9784 40.582H45.1234C45.158 40.894 45.288 41.1323 45.5134 41.297C45.7474 41.4617 46.0464 41.544 46.4104 41.544C46.6617 41.544 46.8524 41.4877 46.9824 41.375C47.1124 41.2537 47.1774 41.0977 47.1774 40.907C47.1774 40.6557 47.056 40.478 46.8134 40.374C46.5794 40.2613 46.1937 40.1443 45.6564 40.023C45.119 39.9103 44.677 39.789 44.3304 39.659C43.9837 39.529 43.6847 39.321 43.4334 39.035C43.182 38.7403 43.0564 38.3417 43.0564 37.839C43.0564 37.189 43.3034 36.6647 43.7974 36.266C44.2914 35.8587 44.989 35.655 45.8904 35.655Z" fill="#F59828"/>
</svg>
