<svg width="31" height="48" viewBox="0 0 31 48" fill="none" xmlns="http://www.w3.org/2000/svg">
<path fill-rule="evenodd" clip-rule="evenodd" d="M7.33054 34.1251C2.92988 35.4483 0 37.8086 0 40.5C0 44.6422 6.93959 48 15.5 48C24.0604 48 31 44.6422 31 40.5C31 37.6343 27.6783 35.1439 22.7962 33.8812C22.2958 34.854 21.7681 35.7646 21.2136 36.588C22.7296 36.918 24.0629 37.3695 25.1535 37.8972C27.6774 39.1185 28 40.2293 28 40.5C28 40.7707 27.6774 41.8816 25.1535 43.1028C22.8381 44.2232 19.4288 45 15.5 45C11.5712 45 8.16187 44.2232 5.84653 43.1028C3.32256 41.8816 3 40.7707 3 40.5C3 40.2293 3.32256 39.1185 5.84653 37.8972C6.72586 37.4717 7.76298 37.0958 8.92642 36.7931C8.36745 35.9847 7.8354 35.087 7.33054 34.1251Z" fill="#152C5B"/>
<path d="M27.3869 14.4912C26.5738 18.6114 25.0086 25.0525 22.7446 30.4304C21.6096 33.1263 20.3354 35.4662 18.9527 37.1076C17.5561 38.7657 16.2351 39.5 15 39.5C13.7649 39.5 12.4439 38.7657 11.0473 37.1076C9.66464 35.4662 8.39037 33.1263 7.25544 30.4304C4.99139 25.0525 3.42622 18.6114 2.6131 14.4912C2.53393 14.09 2.49954 13.7219 2.51745 13.3792C2.86363 6.75612 8.32477 1.5 15 1.5C21.6752 1.5 27.1364 6.75612 27.4825 13.3792C27.5005 13.7219 27.4661 14.09 27.3869 14.4912Z" stroke="#152C5B" stroke-width="3"/>
<circle cx="15.5" cy="13.5" r="4" stroke="#F59828" stroke-width="3"/>
</svg>
