<svg width="48" height="48" viewBox="0 0 48 48" fill="none" xmlns="http://www.w3.org/2000/svg">
<path d="M22.1039 0C21.3408 1.67671e-08 20.609 0.31607 20.0693 0.878679C19.5297 1.44129 19.2266 2.20435 19.2266 3C19.2266 3.79565 19.5297 4.55871 20.0693 5.12132C20.609 5.68393 21.3408 6 22.1039 6H28.8177V9.004C28.8177 10.544 28.4456 11.72 27.9469 12.424C27.521 13.028 26.9379 13.412 25.9711 13.412C25.208 13.412 24.4761 13.7281 23.9365 14.2907C23.3969 14.8533 23.0937 15.6164 23.0937 16.412C23.0937 17.2077 23.3969 17.9707 23.9365 18.5333C24.4761 19.0959 25.208 19.412 25.9711 19.412C27.2576 19.4377 28.5309 19.1386 29.6826 18.5403C30.8342 17.942 31.8301 17.0623 32.5851 15.976C33.9931 13.976 34.5724 11.448 34.5724 9.004V3C34.5724 2.20435 34.2693 1.44129 33.7297 0.878679C33.1901 0.31607 32.4582 0 31.6951 0H22.1039Z" fill="#F59828"/>
<path d="M18.068 10.9C17.8565 10.3392 17.4879 9.85775 17.0103 9.51842C16.5327 9.1791 15.9681 8.99762 15.3901 8.99762C14.8121 8.99762 14.2476 9.1791 13.7699 9.51842C13.2923 9.85775 12.9237 10.3392 12.7123 10.9L0.228436 43.9C0.0784663 44.2687 0.000796774 44.6649 6.09829e-06 45.0653C-0.000784577 45.4657 0.0753188 45.8623 0.223831 46.2315C0.372344 46.6008 0.59026 46.9354 0.864732 47.2155C1.1392 47.4955 1.46468 47.7155 1.82197 47.8624C2.17926 48.0093 2.56114 48.0801 2.94509 48.0706C3.32904 48.0612 3.7073 47.9717 4.05756 47.8075C4.40783 47.6432 4.72301 47.4075 4.98453 47.1143C5.24605 46.821 5.44862 46.4762 5.58029 46.1L8.64562 38.004H22.1231L25.1808 46.1C25.4606 46.8405 26.011 47.4348 26.7111 47.7521C27.4111 48.0694 28.2034 48.0837 28.9136 47.792C29.6238 47.5003 30.1938 46.9263 30.4981 46.1964C30.8025 45.4665 30.8163 44.6405 30.5364 43.9L18.068 10.9ZM19.8558 32.004H10.9168L15.3901 20.18L19.8558 32.004Z" fill="#152C5B"/>
<path d="M41.2862 0C42.0493 0 42.7812 0.31607 43.3208 0.878679C43.8604 1.44129 44.1635 2.20435 44.1635 3V11.992H45.1226C45.8858 11.992 46.6176 12.3081 47.1572 12.8707C47.6968 13.4333 48 14.1964 48 14.992C48 15.7877 47.6968 16.5507 47.1572 17.1133C46.6176 17.6759 45.8858 17.992 45.1226 17.992H44.1635V32.996C44.1635 33.7916 43.8604 34.5547 43.3208 35.1173C42.7812 35.6799 42.0493 35.996 41.2862 35.996C40.5231 35.996 39.7912 35.6799 39.2516 35.1173C38.712 34.5547 38.4088 33.7916 38.4088 32.996V3C38.4088 2.20435 38.712 1.44129 39.2516 0.878679C39.7912 0.31607 40.5231 0 41.2862 0Z" fill="#F59828"/>
</svg>
