<svg width="20" height="20" viewBox="0 0 20 20" fill="none" xmlns="http://www.w3.org/2000/svg">
<path d="M4.29391 15.6029L9.03118 15.5868L19.3709 5.34579C19.7767 4.94002 20 4.40113 20 3.82789C20 3.25466 19.7767 2.71577 19.3709 2.30999L17.6684 0.607455C16.8568 -0.204095 15.4409 -0.199801 14.6358 0.604235L4.29391 10.8474V15.6029V15.6029ZM16.1505 2.12536L17.8563 3.82467L16.1419 5.52292L14.4394 3.82145L16.1505 2.12536ZM6.44087 11.7427L12.914 5.33076L14.6165 7.0333L8.14449 13.443L6.44087 13.4484V11.7427Z" fill="#F59828"/>
<path d="M2.14696 19.8828H17.1757C18.3597 19.8828 19.3226 18.9199 19.3226 17.7359V8.43096L17.1757 10.5779V17.7359H5.53701C5.5091 17.7359 5.48011 17.7466 5.4522 17.7466C5.41678 17.7466 5.38135 17.737 5.34485 17.7359H2.14696V2.70717H9.49707L11.644 0.560211H2.14696C0.962911 0.560211 0 1.52312 0 2.70717V17.7359C0 18.9199 0.962911 19.8828 2.14696 19.8828Z" fill="#3BBABE"/>
</svg>
