<svg width="48" height="48" viewBox="0 0 48 48" fill="none" xmlns="http://www.w3.org/2000/svg">
<circle cx="20.5" cy="16.5" r="7" stroke="#152C5B" stroke-width="3"/>
<path d="M1.55993 46.5C2.32346 36.9842 10.2877 29.5 20 29.5C29.7123 29.5 37.6765 36.9842 38.4401 46.5H38.3432H38.2397H38.1372H38.0355H37.9346H37.8346H37.7354H37.6371H37.5396H37.4429H37.3471H37.2521H37.1579H37.0646H36.972H36.8803H36.7893H36.6992H36.6099H36.5214H36.4336H36.3467H36.2605H36.1752H36.0906H36.0068H35.9237H35.8415H35.76H35.6792H35.5992H35.52H35.4415H35.3638H35.2868H35.2105H35.135H35.0602H34.9862H34.9129H34.8403H34.7684H34.6972H34.6267H34.557H34.488H34.4196H34.352H34.285H34.2188H34.1532H34.0883H34.0241H33.9605H33.8977H33.8355H33.7739H33.7131H33.6529H33.5933H33.5344H33.4761H33.4185H33.3616H33.3052H33.2495H33.1944H33.14H33.0862H33.033H32.9804H32.9284H32.877H32.8262H32.7761H32.7265H32.6775H32.6291H32.5813H32.5341H32.4875H32.4414H32.3959H32.351H32.3066H32.2628H32.2196H32.1769H32.1348H32.0932H32.0522H32.0117H31.9717H31.9323H31.8934H31.855H31.8171H31.7798H31.743H31.7067H31.6708H31.6356H31.6008H31.5665H31.5326H31.4993H31.4665H31.4341H31.4023H31.3709H31.34H31.3095H31.2795H31.25H31.2209H31.1923H31.1642H31.1364H31.1092H31.0823H31.0559H31.03H31.0044H30.9793H30.9546H30.9304H30.9065H30.8831H30.86H30.8374H30.8152H30.7933H30.7719H30.7508H30.7302H30.7099H30.69H30.6705H30.6513H30.6325H30.6141H30.596H30.5783H30.561H30.544H30.5273H30.511H30.4951H30.4794H30.4641H30.4492H30.4345H30.4202H30.4062H30.3925H30.3791H30.366H30.3533H30.3408H30.3286H30.3168H30.3052H30.2939H30.2829H30.2721H30.2617H30.2515H30.2415H30.2319H30.2225H30.2133H30.2044H30.1958H30.1874H30.1793H30.1714H30.1637H30.1563H30.149H30.1421H30.1353H30.1287H30.1224H30.1163H30.1104H30.1047H30.0992H30.0939H30.0887H30.0838H30.0791H30.0745H30.0701H30.0659H30.0619H30.058H30.0543H30.0508H30.0474H30.0442H30.0411H30.0381H30.0354H30.0327H30.0302H30.0278H30.0256H30.0234H30.0214H30.0195H30.0178H30.0161H30.0145H30.0131H30.0117H30.0105H30.0093H30.0082H30.0073H30.0063H30.0055H30.0048H30.0041H30.0035H30.0029H30.0024H30.002H30.0016H30.0013H30.001H30.0008H30.0006H30.0004H30.0003H30.0002H30.0001H30.0001H30H30H30H30H30H29.9999H29.9999H29.9998H29.9997H29.9996H29.9994H29.9992H29.999H29.9987H29.9984H29.998H29.9976H29.9971H29.9965H29.9959H29.9952H29.9945H29.9937H29.9928H29.9918H29.9907H29.9895H29.9883H29.9869H29.9855H29.9839H29.9822H29.9805H29.9786H29.9766H29.9744H29.9722H29.9698H29.9673H29.9646H29.9619H29.9589H29.9558H29.9526H29.9492H29.9457H29.942H29.9381H29.9341H29.9299H29.9255H29.9209H29.9162H29.9113H29.9061H29.9008H29.8953H29.8896H29.8837H29.8776H29.8713H29.8647H29.858H29.851H29.8438H29.8363H29.8286H29.8207H29.8126H29.8042H29.7956H29.7867H29.7775H29.7681H29.7585H29.7485H29.7384H29.7279H29.7171H29.7061H29.6948H29.6832H29.6714H29.6592H29.6467H29.634H29.6209H29.6075H29.5938H29.5798H29.5655H29.5508H29.5359H29.5206H29.5049H29.489H29.4727H29.456H29.439H29.4217H29.404H29.3859H29.3675H29.3487H29.3295H29.31H29.2901H29.2698H29.2492H29.2281H29.2067H29.1848H29.1626H29.14H29.1169H29.0935H29.0696H29.0454H29.0207H28.9956H28.97H28.9441H28.9177H28.8908H28.8636H28.8359H28.8077H28.7791H28.75H28.7205H28.6905H28.66H28.6291H28.5977H28.5659H28.5335H28.5007H28.4674H28.4336H28.3993H28.3645H28.3292H28.2934H28.257H28.2202H28.1829H28.145H28.1067H28.0677H28.0283H27.9883H27.9478H27.9068H27.8652H27.8231H27.7804H27.7372H27.6934H27.649H27.6041H27.5586H27.5125H27.4659H27.4187H27.3709H27.3225H27.2735H27.2239H27.1738H27.123H27.0716H27.0196H26.9671H26.9138H26.86H26.8056H26.7505H26.6948H26.6385H26.5815H26.5239H26.4656H26.4067H26.3471H26.2869H26.2261H26.1645H26.1023H26.0395H25.9759H25.9117H25.8468H25.7813H25.715H25.648H25.5804H25.5121H25.443H25.3733H25.3028H25.2316H25.1598H25.0871H25.0138H24.9398H24.865H24.7895H24.7132H24.6362H24.5585H24.48H24.4008H24.3208H24.2401H24.1585H24.0763H23.9932H23.9094H23.8248H23.7395H23.6533H23.5664H23.4786H23.3901H23.3008H23.2107H23.1197H23.028H22.9355H22.8421H22.7479H22.6529H22.5571H22.4604H22.3629H22.2646H22.1654H22.0654H21.9645H21.8628H21.7603H21.6568H21.5525H21.4474H21.3414H21.2345H21.1267H21.018H20.9085H20.7981H20.6868H20.5746H20.4615H20.3475H20.2326H20.1167H20H19.8833H19.7675H19.6525H19.5385H19.4254H19.3132H19.2019H19.0915H18.982H18.8733H18.7655H18.6586H18.5526H18.4475H18.3432H18.2398H18.1372H18.0355H17.9346H17.8346H17.7354H17.6371H17.5396H17.4429H17.3471H17.2521H17.1579H17.0646H16.972H16.8803H16.7893H16.6992H16.6099H16.5214H16.4336H16.3467H16.2606H16.1752H16.0906H16.0068H15.9237H15.8415H15.76H15.6792H15.5992H15.52H15.4415H15.3638H15.2868H15.2105H15.135H15.0602H14.9862H14.9129H14.8403H14.7684H14.6972H14.6268H14.557H14.488H14.4196H14.352H14.285H14.2188H14.1532H14.0883H14.0241H13.9605H13.8977H13.8355H13.7739H13.7131H13.6529H13.5933H13.5344H13.4761H13.4185H13.3616H13.3052H13.2495H13.1944H13.14H13.0862H13.033H12.9804H12.9284H12.877H12.8262H12.7761H12.7265H12.6775H12.6291H12.5813H12.5341H12.4875H12.4414H12.3959H12.351H12.3066H12.2628H12.2196H12.1769H12.1348H12.0932H12.0522H12.0117H11.9717H11.9323H11.8934H11.855H11.8171H11.7798H11.743H11.7067H11.6709H11.6356H11.6008H11.5665H11.5326H11.4993H11.4665H11.4342H11.4023H11.3709H11.34H11.3095H11.2795H11.25H11.2209H11.1923H11.1642H11.1364H11.1092H11.0823H11.0559H11.03H11.0044H10.9793H10.9546H10.9304H10.9065H10.8831H10.86H10.8374H10.8152H10.7933H10.7719H10.7509H10.7302H10.7099H10.69H10.6705H10.6513H10.6325H10.6141H10.5961H10.5783H10.561H10.544H10.5273H10.511H10.4951H10.4794H10.4641H10.4492H10.4345H10.4202H10.4062H10.3925H10.3791H10.3661H10.3533H10.3408H10.3286H10.3168H10.3052H10.2939H10.2829H10.2721H10.2617H10.2515H10.2415H10.2319H10.2225H10.2133H10.2044H10.1958H10.1874H10.1793H10.1714H10.1637H10.1563H10.149H10.1421H10.1353H10.1287H10.1224H10.1163H10.1104H10.1047H10.0992H10.0939H10.0887H10.0838H10.0791H10.0745H10.0701H10.0659H10.0619H10.058H10.0543H10.0508H10.0474H10.0442H10.0411H10.0381H10.0354H10.0327H10.0302H10.0278H10.0256H10.0234H10.0214H10.0195H10.0178H10.0161H10.0145H10.0131H10.0117H10.0105H10.0093H10.0082H10.0073H10.0063H10.0055H10.0048H10.0041H10.0035H10.0029H10.0024H10.002H10.0016H10.0013H10.001H10.0008H10.0006H10.0004H10.0003H10.0002H10.0001H10.0001H10H10H10H9.99999H9.99996H9.99993H9.99987H9.9998H9.9997H9.99957H9.99941H9.99921H9.99897H9.99869H9.99837H9.99799H9.99756H9.99707H9.99653H9.99591H9.99523H9.99448H9.99366H9.99275H9.99176H9.99069H9.98953H9.98827H9.98692H9.98547H9.98391H9.98225H9.98047H9.97858H9.97658H9.97445H9.97219H9.96981H9.9673H9.96465H9.96186H9.95892H9.95584H9.95261H9.94923H9.94569H9.94199H9.93812H9.93408H9.92988H9.9255H9.92094H9.91619H9.91127H9.90615H9.90084H9.89533H9.88962H9.88371H9.87759H9.87126H9.86471H9.85795H9.85096H9.84375H9.83631H9.82864H9.82073H9.81259H9.8042H9.79556H9.78667H9.77753H9.76813H9.75847H9.74855H9.73835H9.72789H9.71715H9.70613H9.69483H9.68324H9.67136H9.65919H9.64672H9.63396H9.62088H9.6075H9.59381H9.57981H9.56548H9.55084H9.53587H9.52057H9.50494H9.48897H9.47266H9.45601H9.43901H9.42166H9.40396H9.38589H9.36747H9.34869H9.32953H9.31H9.2901H9.26982H9.24916H9.2281H9.20666H9.18483H9.1626H9.13997H9.11693H9.09349H9.06964H9.04537H9.02068H8.99557H8.97003H8.94407H8.91767H8.89084H8.86357H8.83585H8.80768H8.77907H8.75H8.72048H8.69049H8.66004H8.62911H8.59772H8.56585H8.5335H8.50067H8.46736H8.43355H8.39925H8.36445H8.32915H8.29335H8.25704H8.22022H8.18288H8.14502H8.10665H8.06774H8.02831H7.98835H7.94784H7.9068H7.86522H7.82308H7.7804H7.73716H7.69337H7.64901H7.60409H7.5586H7.51253H7.46589H7.41868H7.37087H7.32249H7.27351H7.22394H7.17377H7.123H7.07163H7.01964H6.96705H6.91384H6.86001H6.80556H6.75049H6.69479H6.63845H6.58147H6.52386H6.4656H6.40669H6.34714H6.28693H6.22606H6.16453H6.10233H6.03947H5.97593H5.91172H5.84683H5.78125H5.71499H5.64804H5.58039H5.51205H5.443H5.37325H5.3028H5.23163H5.15975H5.08714H5.01382H4.93977H4.86499H4.78947H4.71322H4.63623H4.5585H4.48001H4.40078H4.32079H4.24005H4.15854H4.07627H3.99323H3.90941H3.82482H3.73945H3.6533H3.56636H3.47863H3.3901H3.30078H3.21066H3.11973H3.028H2.93545H2.84209H2.7479H2.6529H2.55707H2.46041H2.36291H2.26458H2.16541H2.0654H1.96454H1.86282H1.76025H1.65683H1.55993Z" stroke="#152C5B" stroke-width="3" stroke-linecap="round" stroke-linejoin="round"/>
<line x1="41.5" y1="5" x2="41.5" y2="24" stroke="#F59828" stroke-width="3"/>
<path d="M37 0C37 8 46 8 46 0" stroke="#F59828" stroke-width="3"/>
<circle cx="41.5" cy="26.5" r="3.5" stroke="#F59828" stroke-width="3"/>
</svg>
