<svg width="246" height="69" viewBox="0 0 246 69" fill="none" xmlns="http://www.w3.org/2000/svg">
<path d="M59 26.95C61.7 26.95 64.1167 27.5167 66.25 28.65C68.4167 29.7833 70.1167 31.4333 71.35 33.6C72.5833 35.7333 73.2 38.25 73.2 41.15C73.2 44.05 72.5833 46.5667 71.35 48.7C70.1167 50.8333 68.4167 52.4833 66.25 53.65C64.1167 54.7833 61.7 55.35 59 55.35C56.3 55.35 53.8667 54.7833 51.7 53.65C49.5667 52.4833 47.8833 50.8333 46.65 48.7C45.4167 46.5667 44.8 44.05 44.8 41.15C44.8 38.25 45.4167 35.7333 46.65 33.6C47.8833 31.4333 49.5667 29.7833 51.7 28.65C53.8667 27.5167 56.3 26.95 59 26.95ZM59 33.05C57.0333 33.05 55.3667 33.75 54 35.15C52.6333 36.5167 51.95 38.5167 51.95 41.15C51.95 43.7833 52.6333 45.8 54 47.2C55.3667 48.5667 57.0333 49.25 59 49.25C60.9667 49.25 62.6333 48.5667 64 47.2C65.3667 45.8 66.05 43.7833 66.05 41.15C66.05 38.5167 65.3667 36.5167 64 35.15C62.6333 33.75 60.9667 33.05 59 33.05ZM117.832 27.3L110.382 55H102.582L96.6324 34.85L90.5324 55H82.7324L75.3324 27.3H82.3824L86.8824 48.7L93.0324 27.3H100.482L106.682 48.7L111.232 27.3H117.832Z" fill="#F59828"/>
<path d="M120.546 19.35C120.546 18.2167 120.946 17.3 121.746 16.6C122.546 15.8667 123.596 15.5 124.896 15.5C126.196 15.5 127.246 15.8667 128.046 16.6C128.846 17.3 129.246 18.2167 129.246 19.35C129.246 20.45 128.846 21.3667 128.046 22.1C127.246 22.8 126.196 23.15 124.896 23.15C123.596 23.15 122.546 22.8 121.746 22.1C120.946 21.3667 120.546 20.45 120.546 19.35ZM128.396 27.3V55H121.346V27.3H128.396ZM145.624 26.95C147.958 26.95 149.941 27.5 151.574 28.6C153.241 29.7 154.441 31.1833 155.174 33.05V18H162.174V55H155.174V49.2C154.441 51.0667 153.241 52.5667 151.574 53.7C149.941 54.8 147.958 55.35 145.624 55.35C143.291 55.35 141.191 54.7833 139.324 53.65C137.458 52.5167 135.991 50.8833 134.924 48.75C133.891 46.5833 133.374 44.05 133.374 41.15C133.374 38.25 133.891 35.7333 134.924 33.6C135.991 31.4333 137.458 29.7833 139.324 28.65C141.191 27.5167 143.291 26.95 145.624 26.95ZM147.824 33.1C145.624 33.1 143.858 33.8167 142.524 35.25C141.191 36.6833 140.524 38.65 140.524 41.15C140.524 43.65 141.191 45.6167 142.524 47.05C143.858 48.45 145.624 49.15 147.824 49.15C149.958 49.15 151.708 48.4333 153.074 47C154.474 45.5333 155.174 43.5833 155.174 41.15C155.174 38.6833 154.474 36.7333 153.074 35.3C151.708 33.8333 149.958 33.1 147.824 33.1ZM179.413 26.95C181.747 26.95 183.747 27.5 185.413 28.6C187.08 29.7 188.263 31.1833 188.963 33.05V27.3H195.963V55H188.963V49.2C188.263 51.0667 187.08 52.5667 185.413 53.7C183.747 54.8 181.747 55.35 179.413 55.35C177.08 55.35 174.98 54.7833 173.113 53.65C171.247 52.5167 169.78 50.8833 168.713 48.75C167.68 46.5833 167.163 44.05 167.163 41.15C167.163 38.25 167.68 35.7333 168.713 33.6C169.78 31.4333 171.247 29.7833 173.113 28.65C174.98 27.5167 177.08 26.95 179.413 26.95ZM181.613 33.1C179.413 33.1 177.647 33.8167 176.313 35.25C174.98 36.6833 174.313 38.65 174.313 41.15C174.313 43.65 174.98 45.6167 176.313 47.05C177.647 48.45 179.413 49.15 181.613 49.15C183.747 49.15 185.497 48.4333 186.863 47C188.263 45.5333 188.963 43.5833 188.963 41.15C188.963 38.6833 188.263 36.7333 186.863 35.3C185.497 33.8333 183.747 33.1 181.613 33.1ZM207.102 27.3L214.652 46.1L221.652 27.3H229.402L212.452 68.2H204.652L210.902 54.2L199.252 27.3H207.102ZM238.573 47.65V55H230.973V47.65H238.573Z" fill="#3BBABE"/>
<path d="M7.50002 24C11.5 16.8 23 16 26.5 18C25.8334 29.1667 28 29.5 24 33C24 21 11.737 25.4218 12.5 30C13 33 9.5 38.5 9.5 38.5C7.66667 36.8333 3.50002 31.2 7.50002 24Z" fill="#3BBABE"/>
<rect y="2" width="9" height="53" fill="#F59828"/>
<rect x="24" y="2" width="9" height="53" fill="#F59828"/>
<path d="M51 14C48.1667 15.1667 41.9 18 41.5 18C36.5 28 21 40.5 12.5 30L9.5 38.5C24 48 46 32.5 51 14Z" fill="#3BBABE"/>
<circle cx="40.5" cy="9.5" r="5.5" fill="#3BBABE"/>
</svg>
