<svg width="27" height="27" viewBox="0 0 27 27" fill="none" xmlns="http://www.w3.org/2000/svg">
<path d="M26.1273 9.68896L18.0333 8.51312L14.415 1.18087C14.3162 0.980113 14.1536 0.817599 13.9527 0.718815C13.4491 0.470264 12.837 0.67739 12.5851 1.18087L8.96687 8.51312L0.872797 9.68896C0.649644 9.72082 0.445618 9.82598 0.289411 9.98531C0.100566 10.1793 -0.00349683 10.4403 8.97264e-05 10.711C0.00367629 10.9817 0.114619 11.2399 0.308539 11.4288L6.16471 17.1359L4.78116 25.1947C4.74872 25.3822 4.76947 25.575 4.84107 25.7513C4.91267 25.9275 5.03224 26.0802 5.18624 26.192C5.34024 26.3038 5.5225 26.3703 5.71235 26.3838C5.90219 26.3973 6.09204 26.3574 6.26035 26.2686L13.5001 22.4638L20.7398 26.2686C20.9374 26.3737 21.167 26.4088 21.3869 26.3706C21.9416 26.275 22.3146 25.7492 22.219 25.1947L20.8354 17.1359L26.6916 11.4288C26.851 11.2727 26.9562 11.0687 26.9881 10.8457C27.0741 10.288 26.6852 9.77181 26.1273 9.68896Z" fill="#D2D2D2"/>
</svg>
